# xmcd
#
# Track frame offsets: 
#        150
#        5719
#        23070
#        39045
#        54646
#        61128
#        79390
#        88081
#        107855
#        126014
#        140107
#        164599
#        173582
#        194116
#        195751
#        215896
#        227157
#        242306
#        246346
#        262942
#        274766
#
# Disc length: 3935 seconds
#
# Revision: 0
# Processed by: cddbd v1.5.2PL0 Copyright (c) Steve Scherf et al.
# Submitted via: ExactAudioCopyFreeDBPlugin 1.0
#
DISCID=290f5d15
DTITLE=Belinda Smith - Time Machine
DYEAR=2012
DGENRE=Country
TTITLE0=Introduction
TTITLE1=This Ain't a Song About That
TTITLE2=What You See Ain't Always What You Get
TTITLE3=Young
TTITLE4=Talk
TTITLE5=Miss November
TTITLE6=Talk
TTITLE7=God is on His Throne (Psalm 11)
TTITLE8=Beautiful
TTITLE9=Under My Bed
TTITLE10=Hallelujah
TTITLE11=Talk
TTITLE12=Time Machine
TTITLE13=Talk
TTITLE14=Real - piano
TTITLE15=Talk
TTITLE16=Feels Pretty Good
TTITLE17=Talk
TTITLE18=Close To You
TTITLE19=Closing
TTITLE20=Another Day
EXTD=
EXTT0=
EXTT1=
EXTT2=
EXTT3=
EXTT4=
EXTT5=
EXTT6=
EXTT7=
EXTT8=
EXTT9=
EXTT10=
EXTT11=
EXTT12=
EXTT13=
EXTT14=
EXTT15=
EXTT16=
EXTT17=
EXTT18=
EXTT19=
EXTT20=
PLAYORDER=
